# xmcd CD database file
# Copyright (C) 1993-1998 Ti Kan
# 
# Track frame offsets:
#     150
#     13580
#     40462
#     57905
#     79952
#     91427
#     107330
#     123522
#     139022
#     159047
# 
# Disc length: 2284 seconds
# 
# Revision: 1
# Processed by: cddbd v1.4b41PL1 Copyright (c) Steve Scherf et al.
# Submitted via: DiscPlay 4.0.4
# 
DISCID=7708ea0a
DTITLE=Paul Brasch - Fit of Blue
DYEAR=1900
DGENRE=
TTITLE0=Fit of Blue
TTITLE1=Blues Don't Take No Vacation
TTITLE2=Special Streamline
TTITLE3=Tell My Father
TTITLE4=Change Your Ways
TTITLE5=Never Had No Blues (Bad As These)
TTITLE6=Stones In My Passway
TTITLE7=No One Can Forgive Me But My Baby
TTITLE8=Terraplane Blues
TTITLE9=Good Night Irene
EXTD=
EXTT0=
EXTT1=
EXTT2=
EXTT3=
EXTT4=
EXTT5=
EXTT6=
EXTT7=
EXTT8=
EXTT9=
PLAYORDER=
